<?xml version="1.0" encoding="utf-8"?>
<!-- Generator: Adobe Illustrator 25.4.1, SVG Export Plug-In . SVG Version: 6.00 Build 0)  -->
<svg version="1.1" id="baed4b18-14ee-447f-bd84-b0265ca0ad8a"
	 xmlns="http://www.w3.org/2000/svg" xmlns:xlink="http://www.w3.org/1999/xlink" x="0px" y="0px" viewBox="0 0 1049.6 678.6"
	 style="enable-background:new 0 0 1049.6 678.6;" xml:space="preserve">
<style type="text/css">
	.st0{fill:#66CCCC;}
	.st1{fill:#FFFFFF;}
</style>
<path class="st0" d="M650.2,677H399.8c-117.8,0-213.3-95.5-213.3-213.3V213.3C186.5,95.5,282,0,399.8,0h250.5
	C768,0,863.5,95.5,863.5,213.3v250.5C863.5,581.5,768,677,650.2,677z"/>
<g>
	<path class="st1" d="M484.4,257.3L423.5,237c0-38.6,45.4-81.2,101.5-81.2s101.5,45.4,101.5,101.5c0,46.3-31.2,85.6-73.9,97.8
		c-4.1,1.2-7.3,4.9-7.3,9.7v34.5h-60.9v-60.9c0-22.3,18.3-40.6,40.6-40.6c22.3,0,40.6-18.3,40.6-40.6s-18.3-40.6-40.6-40.6
		C502.7,216.8,484.4,235,484.4,257.3z M484.4,460.2h60.9v60.9h-60.9V460.2z"/>
</g>
</svg>
