<?xml version="1.0" encoding="utf-8"?>
<!-- Generator: Adobe Illustrator 25.4.1, SVG Export Plug-In . SVG Version: 6.00 Build 0)  -->
<svg version="1.1" id="_x31_57b87cc-8b9b-4d5e-a986-822dc24578af"
	 xmlns="http://www.w3.org/2000/svg" xmlns:xlink="http://www.w3.org/1999/xlink" x="0px" y="0px" viewBox="0 0 1103.1 834.2"
	 style="enable-background:new 0 0 1103.1 834.2;" xml:space="preserve">
<style type="text/css">
	.st0{fill:#333333;}
	.st1{fill:#FFFFFF;}
</style>
<path class="st0" d="M755.4,834.2H347.7c-117.8,0-213.3-95.5-213.3-213.3V213.3C134.5,95.5,230,0,347.7,0h407.6
	c117.8,0,213.3,95.5,213.3,213.3v407.6C968.6,738.7,873.2,834.2,755.4,834.2z"/>
<g>
	<path class="st1" d="M501.6,317.1l-75-25c0-47.5,56-100,125-100s125,56,125,125c0,57-38.5,105.5-91,120.5c-5,1.5-9,6-9,12v42.5h-75
		v-75c0-27.5,22.5-50,50-50s50-22.5,50-50s-22.5-50-50-50S501.6,289.6,501.6,317.1z M501.6,567.1h75v75h-75V567.1z"/>
</g>
</svg>
